<svg xmlns="http://www.w3.org/2000/svg" viewBox="0 0 1200 630">
  <defs>
    <linearGradient id="paper" x1="0" y1="0" x2="1" y2="1">
      <stop offset="0%" stop-color="#F4ECE0"/>
      <stop offset="100%" stop-color="#ECE2CF"/>
    </linearGradient>
  </defs>
  <rect width="1200" height="630" fill="url(#paper)"/>
  <g transform="translate(96 110)">
    <rect width="72" height="72" rx="18" fill="#111111"/>
    <path d="M15 48c6-18 11-21 18-9 5 9 10 8 15-8 5-14 11-11 16 4" fill="none" stroke="#FBF7EE" stroke-width="5.5" stroke-linecap="round" stroke-linejoin="round"/>
  </g>
  <text x="96" y="250" font-family="Inter, 'Helvetica Neue', Arial, sans-serif" font-size="28" letter-spacing="0.32em" fill="#111111" opacity="0.55" font-weight="700">MOTION SIGNATURES</text>
  <text x="96" y="360" font-family="'Iowan Old Style', 'Georgia', serif" font-size="84" fill="#111111" font-weight="500" letter-spacing="-0.02em">Signature motion</text>
  <text x="96" y="450" font-family="'Iowan Old Style', 'Georgia', serif" font-size="84" fill="#111111" font-weight="500" letter-spacing="-0.02em">for documents that</text>
  <text x="96" y="540" font-family="'Iowan Old Style', 'Georgia', serif" font-size="84" fill="#111111" font-weight="500" letter-spacing="-0.02em">deserve craft.</text>
  <g transform="translate(820 320) rotate(-6)">
    <path d="M 0 80 C 20 20 60 0 80 40 C 95 75 70 110 60 90 C 55 75 80 60 110 70 C 145 85 160 120 150 120 C 140 120 165 90 200 80 C 240 70 270 110 250 130 C 240 138 260 110 290 108 C 320 106 340 120 340 135" fill="none" stroke="#111111" stroke-width="5.5" stroke-linecap="round" stroke-linejoin="round"/>
    <path d="M 10 160 C 100 180 260 175 330 155" fill="none" stroke="#111111" stroke-width="4" stroke-linecap="round" stroke-linejoin="round"/>
  </g>
</svg>
